<svg width="1288" height="508" viewBox="0 0 1288 508" fill="none" xmlns="http://www.w3.org/2000/svg">
<g clip-path="url(#clip0_1368_15517)">
<path d="M59 109.85H0V398.17H59V109.85Z" fill="#231F20"/>
<path d="M186.73 0H127.73V219.67H186.73V0Z" fill="#231F20"/>
<path d="M186.73 288.33H127.73V508H186.73V288.33Z" fill="#31D891"/>
<path d="M314.46 109.85H255.46V398.17H314.46V109.85Z" fill="#31D891"/>
<path d="M874.15 342.399C871.426 351.025 867.349 359.163 862.07 366.509C856.751 373.97 850.293 380.547 842.93 385.999C835.173 391.689 826.581 396.142 817.46 399.199C807.349 402.55 796.751 404.199 786.1 404.079C773.283 404.121 760.57 401.778 748.61 397.169C736.777 392.676 726.012 385.766 717 376.879C707.674 367.529 700.369 356.361 695.54 344.069C690.004 329.955 687.266 314.899 687.48 299.739C687.289 285.338 689.922 271.038 695.23 257.649C700.022 245.628 706.999 234.598 715.81 225.119C724.27 216.103 734.477 208.904 745.81 203.959C756.976 199.007 769.055 196.449 781.27 196.449C795.049 196.223 808.731 198.791 821.49 203.999C832.794 208.677 842.891 215.857 851.02 224.999C859.168 234.447 865.33 245.439 869.14 257.319C873.471 270.783 875.598 284.857 875.44 298.999C875.44 301.449 875.44 303.759 875.24 305.909C875.141 307.68 874.938 309.443 874.63 311.189H727.07C727.248 319.431 728.918 327.573 732 335.219C734.825 342.294 739.049 348.726 744.42 354.129C749.768 359.437 756.15 363.59 763.17 366.329C770.501 369.175 778.306 370.601 786.17 370.529C802.17 370.529 814.39 366.736 822.83 359.149C831.272 351.511 837.584 341.811 841.15 330.999L874.15 342.399ZM835.46 280.109C835.265 266.893 830.181 254.217 821.19 244.529C812.217 234.923 799.043 230.113 781.67 230.099C774.184 229.967 766.755 231.419 759.87 234.359C753.737 237.036 748.199 240.908 743.58 245.749C739.108 250.467 735.46 255.903 732.79 261.829C730.117 267.572 728.592 273.782 728.3 280.109H835.46Z" fill="#231F20"/>
<path d="M618.7 398.15V270.06H486.54V398.17H446.6V109.83H486.54V233.05H618.7V109.83H658.62V398.15H618.7Z" fill="#231F20"/>
<path d="M873.76 342.401C862.76 376.981 831.45 404.221 785.94 404.221C733.47 404.221 687.5 366.001 687.5 299.701C687.5 238.281 731.83 196.381 781.05 196.381C841.26 196.381 875.05 237.861 875.05 298.891C875.07 302.972 874.8 307.049 874.24 311.091H726.91C727.72 346.091 752.91 370.521 785.91 370.521C817.63 370.521 833.5 353.031 840.82 331.051L873.76 342.401ZM835.09 280.171C834.28 252.111 815.98 230.171 781.42 230.171C749.29 230.171 729.77 254.981 728.13 280.171H835.09Z" fill="#231F20"/>
<path d="M953.28 286.27L1006.15 278.55C1017.96 276.91 1021.21 270.81 1021.21 263.91C1021.21 244.81 1008.6 228.91 978.92 228.91C952.07 228.91 937.01 245.59 934.56 268.37L898 259.85C902.06 222.43 935.82 196.42 978.13 196.42C1036.68 196.42 1059.48 229.78 1059.48 268.01V366.01C1059.35 376.767 1060.16 387.514 1061.9 398.13H1024.5C1023.01 389.398 1022.35 380.546 1022.5 371.69C1013.96 385.54 994.44 404.23 959.5 404.23C919.64 404.23 894 376.58 894 345.68C893.89 310.68 919.53 291.15 953.28 286.27ZM1021.21 314.34V305.4L961.41 314.34C945.14 316.78 932.94 326.12 932.94 343.61C932.94 358.25 945.14 372.08 964.67 372.08C995.98 372.08 1021.21 357.08 1021.21 314.34Z" fill="#231F20"/>
<path d="M1095.57 475.41V202.47H1132.57V233C1143.15 213.48 1166.34 198 1198.06 198C1256.61 198 1287.96 243.16 1287.96 300.1C1287.96 358.27 1254.18 403.41 1196.84 403.41C1166.74 403.41 1143.97 389.18 1133.41 371.68V475.41H1095.57ZM1191.15 231.77C1156.15 231.77 1132.99 261.04 1132.99 300.08C1132.99 340.34 1156.18 369.23 1191.15 369.23C1226.55 369.23 1248.91 340.34 1248.91 300.08C1248.91 261.08 1226.91 231.77 1191.15 231.77Z" fill="#231F20"/>
</g>
<defs>
<clipPath id="clip0_1368_15517">
<rect width="1288" height="508" fill="white"/>
</clipPath>
</defs>
</svg>
